<svg width="18" height="18" viewBox="0 0 18 18" fill="none" xmlns="http://www.w3.org/2000/svg">
<g clip-path="url(#clip0_40005735_930)">
<path d="M7.25326 3.10199C7.29459 2.66725 7.49651 2.26353 7.81959 1.9697C8.14267 1.67588 8.56368 1.51306 9.00039 1.51306C9.43709 1.51306 9.85811 1.67588 10.1812 1.9697C10.5043 2.26353 10.7062 2.66725 10.7475 3.10199C10.7724 3.38283 10.8645 3.65356 11.0161 3.89125C11.1677 4.12894 11.3744 4.3266 11.6186 4.4675C11.8628 4.6084 12.1374 4.68839 12.419 4.70071C12.7007 4.71302 12.9812 4.65729 13.2368 4.53824C13.6336 4.35808 14.0833 4.33201 14.4983 4.46511C14.9133 4.59821 15.2639 4.88095 15.4819 5.25832C15.6999 5.63569 15.7697 6.08067 15.6777 6.50667C15.5858 6.93267 15.3386 7.3092 14.9843 7.56299C14.7536 7.72488 14.5652 7.93995 14.4352 8.19001C14.3052 8.44007 14.2373 8.71777 14.2373 8.99962C14.2373 9.28146 14.3052 9.55916 14.4352 9.80922C14.5652 10.0593 14.7536 10.2744 14.9843 10.4362C15.3386 10.69 15.5858 11.0666 15.6777 11.4926C15.7697 11.9186 15.6999 12.3635 15.4819 12.7409C15.2639 13.1183 14.9133 13.401 14.4983 13.5341C14.0833 13.6672 13.6336 13.6412 13.2368 13.461C12.9812 13.3419 12.7007 13.2862 12.419 13.2985C12.1374 13.3108 11.8628 13.3908 11.6186 13.5317C11.3744 13.6726 11.1677 13.8703 11.0161 14.108C10.8645 14.3457 10.7724 14.6164 10.7475 14.8972C10.7062 15.332 10.5043 15.7357 10.1812 16.0295C9.85811 16.3234 9.43709 16.4862 9.00039 16.4862C8.56368 16.4862 8.14267 16.3234 7.81959 16.0295C7.49651 15.7357 7.29459 15.332 7.25326 14.8972C7.22847 14.6163 7.13634 14.3455 6.98466 14.1077C6.83299 13.8699 6.62624 13.6722 6.38194 13.5313C6.13763 13.3904 5.86297 13.3104 5.5812 13.2982C5.29943 13.2859 5.01887 13.3418 4.76326 13.461C4.36643 13.6412 3.91676 13.6672 3.50176 13.5341C3.08677 13.401 2.73614 13.1183 2.51813 12.7409C2.30011 12.3635 2.2303 11.9186 2.32228 11.4926C2.41427 11.0666 2.66147 10.69 3.01576 10.4362C3.24648 10.2744 3.43481 10.0593 3.56483 9.80922C3.69485 9.55916 3.76273 9.28146 3.76273 8.99962C3.76273 8.71777 3.69485 8.44007 3.56483 8.19001C3.43481 7.93995 3.24648 7.72488 3.01576 7.56299C2.66196 7.30908 2.4152 6.93269 2.32344 6.50698C2.23168 6.08127 2.30147 5.63665 2.51925 5.25953C2.73703 4.88241 3.08725 4.59972 3.50183 4.46642C3.91642 4.33312 4.36575 4.35872 4.76251 4.53824C5.01808 4.65729 5.29857 4.71302 5.58024 4.70071C5.86191 4.68839 6.13646 4.6084 6.38067 4.4675C6.62487 4.3266 6.83153 4.12894 6.98316 3.89125C7.13479 3.65356 7.22693 3.38283 7.25176 3.10199" stroke="black" stroke-width="2" stroke-linecap="round" stroke-linejoin="round"/>
<path d="M9 11.25C10.2426 11.25 11.25 10.2426 11.25 9C11.25 7.75736 10.2426 6.75 9 6.75C7.75736 6.75 6.75 7.75736 6.75 9C6.75 10.2426 7.75736 11.25 9 11.25Z" stroke="black" stroke-width="2" stroke-linecap="round" stroke-linejoin="round"/>
</g>
<defs>
<clipPath id="clip0_40005735_930">
<rect width="18" height="18" fill="white"/>
</clipPath>
</defs>
</svg>
